<mxfile host="65bd71144e">
    <diagram id="UlIAgZQlt-q68ckBGbUw" name="PÃ¡gina-1">
        <mxGraphModel dx="-892" dy="563" grid="0" gridSize="10" guides="1" tooltips="1" connect="1" arrows="1" fold="1" page="0" pageScale="1" pageWidth="827" pageHeight="1169" background="none" math="0" shadow="0">
            <root>
                <mxCell id="0"/>
                <mxCell id="1" parent="0"/>
                <UserObject label="" mermaidData="{&#10;  &quot;data&quot;: &quot;classDiagram\n    class EstadoBrasileiro {\n        &lt;&lt;enumeration&gt;&gt;\n        - String nome\n        - String sigla\n        - int ibge\n        + EstadoBrasileiro(sigla: String, nome: String, ibge: int)\n        + getSigla(): String\n        + getNome(): String\n        + getNomeMaiusculo(): String\n        + getIbge(): int\n    }\n    \n    class SistemaIbge {\n        + main(args: String[]): void\n    }\n\n    EstadoBrasileiro \&quot;1..*\&quot; --&gt; \&quot;1\&quot; SistemaIbge : depende\n\n&quot;,&#10;  &quot;config&quot;: {&#10;    &quot;theme&quot;: &quot;dark&quot;,&#10;    &quot;arrowMarkerAbsolute&quot;: false,&#10;    &quot;flowchart&quot;: {&#10;      &quot;htmlLabels&quot;: false&#10;    },&#10;    &quot;sequence&quot;: {&#10;      &quot;diagramMarginX&quot;: 50,&#10;      &quot;diagramMarginY&quot;: 10,&#10;      &quot;actorMargin&quot;: 50,&#10;      &quot;width&quot;: 150,&#10;      &quot;height&quot;: 65,&#10;      &quot;boxMargin&quot;: 10,&#10;      &quot;boxTextMargin&quot;: 5,&#10;      &quot;noteMargin&quot;: 10,&#10;      &quot;messageMargin&quot;: 35,&#10;      &quot;mirrorActors&quot;: true,&#10;      &quot;bottomMarginAdj&quot;: 1,&#10;      &quot;useMaxWidth&quot;: true,&#10;      &quot;rightAngles&quot;: false,&#10;      &quot;showSequenceNumbers&quot;: false&#10;    },&#10;    &quot;gantt&quot;: {&#10;      &quot;titleTopMargin&quot;: 25,&#10;      &quot;barHeight&quot;: 20,&#10;      &quot;barGap&quot;: 4,&#10;      &quot;topPadding&quot;: 50,&#10;      &quot;leftPadding&quot;: 75,&#10;      &quot;gridLineStartPadding&quot;: 35,&#10;      &quot;fontSize&quot;: 11,&#10;      &quot;fontFamily&quot;: &quot;\&quot;Open-Sans\&quot;, \&quot;sans-serif\&quot;&quot;,&#10;      &quot;numberSectionStyles&quot;: 4,&#10;      &quot;axisFormat&quot;: &quot;%Y-%m-%d&quot;&#10;    },&#10;    &quot;securityLevel&quot;: &quot;strict&quot;,&#10;    &quot;startOnLoad&quot;: false,&#10;    &quot;themeVariables&quot;: {&#10;      &quot;background&quot;: &quot;#333&quot;,&#10;      &quot;primaryColor&quot;: &quot;#1f2020&quot;,&#10;      &quot;secondaryColor&quot;: &quot;hsl(180, 1.5873015873%, 28.3529411765%)&quot;,&#10;      &quot;tertiaryColor&quot;: &quot;hsl(20, 1.5873015873%, 12.3529411765%)&quot;,&#10;      &quot;primaryBorderColor&quot;: &quot;#cccccc&quot;,&#10;      &quot;secondaryBorderColor&quot;: &quot;hsl(180, 0%, 18.3529411765%)&quot;,&#10;      &quot;tertiaryBorderColor&quot;: &quot;hsl(20, 0%, 2.3529411765%)&quot;,&#10;      &quot;primaryTextColor&quot;: &quot;#e0dfdf&quot;,&#10;      &quot;secondaryTextColor&quot;: &quot;rgb(183.8476190475, 181.5523809523, 181.5523809523)&quot;,&#10;      &quot;tertiaryTextColor&quot;: &quot;rgb(222.9999999999, 223.6666666666, 223.9999999999)&quot;,&#10;      &quot;lineColor&quot;: &quot;lightgrey&quot;,&#10;      &quot;textColor&quot;: &quot;#ccc&quot;,&#10;      &quot;mainBkg&quot;: &quot;#1f2020&quot;,&#10;      &quot;secondBkg&quot;: &quot;hsl(180, 1.5873015873%, 28.3529411765%)&quot;,&#10;      &quot;mainContrastColor&quot;: &quot;lightgrey&quot;,&#10;      &quot;darkTextColor&quot;: &quot;hsl(28.5714285714, 17.3553719008%, 86.2745098039%)&quot;,&#10;      &quot;border1&quot;: &quot;#81B1DB&quot;,&#10;      &quot;border2&quot;: &quot;rgba(255, 255, 255, 0.25)&quot;,&#10;      &quot;arrowheadColor&quot;: &quot;lightgrey&quot;,&#10;      &quot;fontFamily&quot;: &quot;\&quot;trebuchet ms\&quot;, verdana, arial, sans-serif&quot;,&#10;      &quot;fontSize&quot;: &quot;16px&quot;,&#10;      &quot;labelBackground&quot;: &quot;#181818&quot;,&#10;      &quot;nodeBkg&quot;: &quot;#1f2020&quot;,&#10;      &quot;nodeBorder&quot;: &quot;#81B1DB&quot;,&#10;      &quot;clusterBkg&quot;: &quot;hsl(180, 1.5873015873%, 28.3529411765%)&quot;,&#10;      &quot;clusterBorder&quot;: &quot;rgba(255, 255, 255, 0.25)&quot;,&#10;      &quot;defaultLinkColor&quot;: &quot;lightgrey&quot;,&#10;      &quot;titleColor&quot;: &quot;#F9FFFE&quot;,&#10;      &quot;edgeLabelBackground&quot;: &quot;hsl(0, 0%, 34.4117647059%)&quot;,&#10;      &quot;actorBorder&quot;: &quot;#81B1DB&quot;,&#10;      &quot;actorBkg&quot;: &quot;#1f2020&quot;,&#10;      &quot;actorTextColor&quot;: &quot;lightgrey&quot;,&#10;      &quot;actorLineColor&quot;: &quot;lightgrey&quot;,&#10;      &quot;signalColor&quot;: &quot;lightgrey&quot;,&#10;      &quot;signalTextColor&quot;: &quot;lightgrey&quot;,&#10;      &quot;labelBoxBkgColor&quot;: &quot;#1f2020&quot;,&#10;      &quot;labelBoxBorderColor&quot;: &quot;#81B1DB&quot;,&#10;      &quot;labelTextColor&quot;: &quot;lightgrey&quot;,&#10;      &quot;loopTextColor&quot;: &quot;lightgrey&quot;,&#10;      &quot;noteBorderColor&quot;: &quot;hsl(180, 0%, 18.3529411765%)&quot;,&#10;      &quot;noteBkgColor&quot;: &quot;hsl(180, 1.5873015873%, 28.3529411765%)&quot;,&#10;      &quot;noteTextColor&quot;: &quot;rgb(183.8476190475, 181.5523809523, 181.5523809523)&quot;,&#10;      &quot;activationBorderColor&quot;: &quot;#81B1DB&quot;,&#10;      &quot;activationBkgColor&quot;: &quot;hsl(180, 1.5873015873%, 28.3529411765%)&quot;,&#10;      &quot;sequenceNumberColor&quot;: &quot;black&quot;,&#10;      &quot;sectionBkgColor&quot;: &quot;hsl(52.9411764706, 28.813559322%, 58.431372549%)&quot;,&#10;      &quot;altSectionBkgColor&quot;: &quot;#333&quot;,&#10;      &quot;sectionBkgColor2&quot;: &quot;#EAE8D9&quot;,&#10;      &quot;taskBorderColor&quot;: &quot;#ffffff&quot;,&#10;      &quot;taskBkgColor&quot;: &quot;hsl(180, 1.5873015873%, 35.3529411765%)&quot;,&#10;      &quot;taskTextColor&quot;: &quot;hsl(28.5714285714, 17.3553719008%, 86.2745098039%)&quot;,&#10;      &quot;taskTextLightColor&quot;: &quot;lightgrey&quot;,&#10;      &quot;taskTextOutsideColor&quot;: &quot;lightgrey&quot;,&#10;      &quot;taskTextClickableColor&quot;: &quot;#003163&quot;,&#10;      &quot;activeTaskBorderColor&quot;: &quot;#ffffff&quot;,&#10;      &quot;activeTaskBkgColor&quot;: &quot;#81B1DB&quot;,&#10;      &quot;gridColor&quot;: &quot;lightgrey&quot;,&#10;      &quot;doneTaskBkgColor&quot;: &quot;lightgrey&quot;,&#10;      &quot;doneTaskBorderColor&quot;: &quot;grey&quot;,&#10;      &quot;critBorderColor&quot;: &quot;#E83737&quot;,&#10;      &quot;critBkgColor&quot;: &quot;#E83737&quot;,&#10;      &quot;taskTextDarkColor&quot;: &quot;hsl(28.5714285714, 17.3553719008%, 86.2745098039%)&quot;,&#10;      &quot;todayLineColor&quot;: &quot;#DB5757&quot;,&#10;      &quot;personBorder&quot;: &quot;calculated&quot;,&#10;      &quot;personBkg&quot;: &quot;calculated&quot;,&#10;      &quot;labelColor&quot;: &quot;calculated&quot;,&#10;      &quot;errorBkgColor&quot;: &quot;#a44141&quot;,&#10;      &quot;errorTextColor&quot;: &quot;#ddd&quot;,&#10;      &quot;transitionColor&quot;: &quot;lightgrey&quot;,&#10;      &quot;transitionLabelColor&quot;: &quot;#ccc&quot;,&#10;      &quot;stateLabelColor&quot;: &quot;#e0dfdf&quot;,&#10;      &quot;stateBkg&quot;: &quot;#1f2020&quot;,&#10;      &quot;labelBackgroundColor&quot;: &quot;#1f2020&quot;,&#10;      &quot;compositeBackground&quot;: &quot;#333&quot;,&#10;      &quot;altBackground&quot;: &quot;#555&quot;,&#10;      &quot;compositeTitleBackground&quot;: &quot;#1f2020&quot;,&#10;      &quot;compositeBorder&quot;: &quot;#81B1DB&quot;,&#10;      &quot;innerEndBackground&quot;: &quot;#cccccc&quot;,&#10;      &quot;specialStateColor&quot;: &quot;#f4f4f4&quot;,&#10;      &quot;fillType0&quot;: &quot;#1f2020&quot;,&#10;      &quot;fillType1&quot;: &quot;hsl(180, 1.5873015873%, 28.3529411765%)&quot;,&#10;      &quot;fillType2&quot;: &quot;hsl(244, 1.5873015873%, 12.3529411765%)&quot;,&#10;      &quot;fillType3&quot;: &quot;hsl(244, 1.5873015873%, 28.3529411765%)&quot;,&#10;      &quot;fillType4&quot;: &quot;hsl(116, 1.5873015873%, 12.3529411765%)&quot;,&#10;      &quot;fillType5&quot;: &quot;hsl(116, 1.5873015873%, 28.3529411765%)&quot;,&#10;      &quot;fillType6&quot;: &quot;hsl(308, 1.5873015873%, 12.3529411765%)&quot;,&#10;      &quot;fillType7&quot;: &quot;hsl(308, 1.5873015873%, 28.3529411765%)&quot;,&#10;      &quot;pie1&quot;: &quot;#0b0000&quot;,&#10;      &quot;pie2&quot;: &quot;#4d1037&quot;,&#10;      &quot;pie3&quot;: &quot;#3f5258&quot;,&#10;      &quot;pie4&quot;: &quot;#4f2f1b&quot;,&#10;      &quot;pie5&quot;: &quot;#6e0a0a&quot;,&#10;      &quot;pie6&quot;: &quot;#3b0048&quot;,&#10;      &quot;pie7&quot;: &quot;#995a01&quot;,&#10;      &quot;pie8&quot;: &quot;#154706&quot;,&#10;      &quot;pie9&quot;: &quot;#161722&quot;,&#10;      &quot;pie10&quot;: &quot;#00296f&quot;,&#10;      &quot;pie11&quot;: &quot;#01629c&quot;,&#10;      &quot;pie12&quot;: &quot;#010029&quot;,&#10;      &quot;pieTitleTextSize&quot;: &quot;25px&quot;,&#10;      &quot;pieTitleTextColor&quot;: &quot;hsl(28.5714285714, 17.3553719008%, 86.2745098039%)&quot;,&#10;      &quot;pieSectionTextSize&quot;: &quot;17px&quot;,&#10;      &quot;pieSectionTextColor&quot;: &quot;#ccc&quot;,&#10;      &quot;pieLegendTextSize&quot;: &quot;17px&quot;,&#10;      &quot;pieLegendTextColor&quot;: &quot;hsl(28.5714285714, 17.3553719008%, 86.2745098039%)&quot;,&#10;      &quot;pieStrokeColor&quot;: &quot;black&quot;,&#10;      &quot;pieStrokeWidth&quot;: &quot;2px&quot;,&#10;      &quot;pieOpacity&quot;: &quot;0.7&quot;,&#10;      &quot;classText&quot;: &quot;#e0dfdf&quot;,&#10;      &quot;requirementBackground&quot;: &quot;#1f2020&quot;,&#10;      &quot;requirementBorderColor&quot;: &quot;#cccccc&quot;,&#10;      &quot;requirementBorderSize&quot;: &quot;#cccccc&quot;,&#10;      &quot;requirementTextColor&quot;: &quot;#e0dfdf&quot;,&#10;      &quot;relationColor&quot;: &quot;lightgrey&quot;,&#10;      &quot;relationLabelBackground&quot;: &quot;hsl(180, 1.5873015873%, 28.3529411765%)&quot;,&#10;      &quot;relationLabelColor&quot;: &quot;lightgrey&quot;,&#10;      &quot;git0&quot;: &quot;hsl(180, 1.5873015873%, 48.3529411765%)&quot;,&#10;      &quot;git1&quot;: &quot;hsl(321.6393442623, 65.5913978495%, 38.2352941176%)&quot;,&#10;      &quot;git2&quot;: &quot;hsl(194.4, 16.5562913907%, 49.6078431373%)&quot;,&#10;      &quot;git3&quot;: &quot;hsl(23.0769230769, 49.0566037736%, 40.7843137255%)&quot;,&#10;      &quot;git4&quot;: &quot;hsl(0, 83.3333333333%, 43.5294117647%)&quot;,&#10;      &quot;git5&quot;: &quot;hsl(289.1666666667, 100%, 24.1176470588%)&quot;,&#10;      &quot;git6&quot;: &quot;hsl(35.1315789474, 98.7012987013%, 40.1960784314%)&quot;,&#10;      &quot;git7&quot;: &quot;hsl(106.1538461538, 84.4155844156%, 35.0980392157%)&quot;,&#10;      &quot;gitInv0&quot;: &quot;rgb(133.6571428571, 129.7428571428, 129.7428571428)&quot;,&#10;      &quot;gitInv1&quot;: &quot;rgb(93.5483870969, 221.4516129033, 139.677419355)&quot;,&#10;      &quot;gitInv2&quot;: &quot;rgb(149.4437086091, 117.6092715231, 107.5562913906)&quot;,&#10;      &quot;gitInv3&quot;: &quot;rgb(99.9811320754, 162.7735849057, 202.0188679245)&quot;,&#10;      &quot;gitInv4&quot;: &quot;rgb(51.5000000001, 236.5, 236.5)&quot;,&#10;      &quot;gitInv5&quot;: &quot;rgb(154.2083333334, 255, 132.0000000001)&quot;,&#10;      &quot;gitInv6&quot;: &quot;rgb(51.331168831, 135.1948051946, 253.6688311688)&quot;,&#10;      &quot;gitInv7&quot;: &quot;rgb(206.1818181817, 89.948051948, 241.051948052)&quot;,&#10;      &quot;tagLabelColor&quot;: &quot;#e0dfdf&quot;,&#10;      &quot;tagLabelBackground&quot;: &quot;#1f2020&quot;,&#10;      &quot;tagLabelBorder&quot;: &quot;#cccccc&quot;,&#10;      &quot;tagLabelFontSize&quot;: &quot;10px&quot;,&#10;      &quot;commitLabelColor&quot;: &quot;rgb(183.8476190475, 181.5523809523, 181.5523809523)&quot;,&#10;      &quot;commitLabelBackground&quot;: &quot;hsl(180, 1.5873015873%, 28.3529411765%)&quot;,&#10;      &quot;commitLabelFontSize&quot;: &quot;10px&quot;&#10;    }&#10;  }&#10;}" id="5">
                    <mxCell style="shape=image;noLabel=1;verticalAlign=top;imageAspect=1;image=data:image/svg+xml,PHN2ZyBhcmlhLWxhYmVsbGVkYnk9ImNoYXJ0LXRpdGxlLWdlTWVybWFpZE91dHB1dC0xNzIxMTk0MTEwNTgyIGNoYXJ0LWRlc2MtZ2VNZXJtYWlkT3V0cHV0LTE3MjExOTQxMTA1ODIiIHJvbGU9ImltZyIgdmlld0JveD0iMCAwIDQyNC4wNTAwMTgzMTA1NDY5IDQyMy4yMDAwMDI2NzAyODgxIiBzdHlsZT0ibWF4LXdpZHRoOiA0MjQuMDUwMDE4MzEwNTQ2OXB4OyIgaGVpZ2h0PSI0MjMuMjAwMDAyNjcwMjg4MSIgeG1sbnM6eGxpbms9Imh0dHA6Ly93d3cudzMub3JnLzE5OTkveGxpbmsiIHhtbG5zPSJodHRwOi8vd3d3LnczLm9yZy8yMDAwL3N2ZyIgd2lkdGg9IjEwMCUiIGlkPSJnZU1lcm1haWRPdXRwdXQtMTcyMTE5NDExMDU4MiI+PHRpdGxlIGlkPSJjaGFydC10aXRsZS1nZU1lcm1haWRPdXRwdXQtMTcyMTE5NDExMDU4MiI+PC90aXRsZT48ZGVzYyBpZD0iY2hhcnQtZGVzYy1nZU1lcm1haWRPdXRwdXQtMTcyMTE5NDExMDU4MiI+PC9kZXNjPjxzdHlsZT4jZ2VNZXJtYWlkT3V0cHV0LTE3MjExOTQxMTA1ODIge2ZvbnQtZmFtaWx5OiJ0cmVidWNoZXQgbXMiLHZlcmRhbmEsYXJpYWwsc2Fucy1zZXJpZjtmb250LXNpemU6MTZweDtmaWxsOiNjY2M7fSNnZU1lcm1haWRPdXRwdXQtMTcyMTE5NDExMDU4MiAuZXJyb3ItaWNvbntmaWxsOiNhNDQxNDE7fSNnZU1lcm1haWRPdXRwdXQtMTcyMTE5NDExMDU4MiAuZXJyb3ItdGV4dHtmaWxsOiNkZGQ7c3Ryb2tlOiNkZGQ7fSNnZU1lcm1haWRPdXRwdXQtMTcyMTE5NDExMDU4MiAuZWRnZS10aGlja25lc3Mtbm9ybWFse3N0cm9rZS13aWR0aDoycHg7fSNnZU1lcm1haWRPdXRwdXQtMTcyMTE5NDExMDU4MiAuZWRnZS10aGlja25lc3MtdGhpY2t7c3Ryb2tlLXdpZHRoOjMuNXB4O30jZ2VNZXJtYWlkT3V0cHV0LTE3MjExOTQxMTA1ODIgLmVkZ2UtcGF0dGVybi1zb2xpZHtzdHJva2UtZGFzaGFycmF5OjA7fSNnZU1lcm1haWRPdXRwdXQtMTcyMTE5NDExMDU4MiAuZWRnZS1wYXR0ZXJuLWRhc2hlZHtzdHJva2UtZGFzaGFycmF5OjM7fSNnZU1lcm1haWRPdXRwdXQtMTcyMTE5NDExMDU4MiAuZWRnZS1wYXR0ZXJuLWRvdHRlZHtzdHJva2UtZGFzaGFycmF5OjI7fSNnZU1lcm1haWRPdXRwdXQtMTcyMTE5NDExMDU4MiAubWFya2Vye2ZpbGw6bGlnaHRncmV5O3N0cm9rZTpsaWdodGdyZXk7fSNnZU1lcm1haWRPdXRwdXQtMTcyMTE5NDExMDU4MiAubWFya2VyLmNyb3Nze3N0cm9rZTpsaWdodGdyZXk7fSNnZU1lcm1haWRPdXRwdXQtMTcyMTE5NDExMDU4MiBzdmd7Zm9udC1mYW1pbHk6InRyZWJ1Y2hldCBtcyIsdmVyZGFuYSxhcmlhbCxzYW5zLXNlcmlmO2ZvbnQtc2l6ZToxNnB4O30jZ2VNZXJtYWlkT3V0cHV0LTE3MjExOTQxMTA1ODIgZy5jbGFzc0dyb3VwIHRleHR7ZmlsbDojODFCMURCO2ZpbGw6I2UwZGZkZjtzdHJva2U6bm9uZTtmb250LWZhbWlseToidHJlYnVjaGV0IG1zIix2ZXJkYW5hLGFyaWFsLHNhbnMtc2VyaWY7Zm9udC1zaXplOjEwcHg7fSNnZU1lcm1haWRPdXRwdXQtMTcyMTE5NDExMDU4MiBnLmNsYXNzR3JvdXAgdGV4dCAudGl0bGV7Zm9udC13ZWlnaHQ6Ym9sZGVyO30jZ2VNZXJtYWlkT3V0cHV0LTE3MjExOTQxMTA1ODIgLm5vZGVMYWJlbCwjZ2VNZXJtYWlkT3V0cHV0LTE3MjExOTQxMTA1ODIgLmVkZ2VMYWJlbHtjb2xvcjojZTBkZmRmO30jZ2VNZXJtYWlkT3V0cHV0LTE3MjExOTQxMTA1ODIgLmVkZ2VMYWJlbCAubGFiZWwgcmVjdHtmaWxsOiMxZjIwMjA7fSNnZU1lcm1haWRPdXRwdXQtMTcyMTE5NDExMDU4MiAubGFiZWwgdGV4dHtmaWxsOiNlMGRmZGY7fSNnZU1lcm1haWRPdXRwdXQtMTcyMTE5NDExMDU4MiAuZWRnZUxhYmVsIC5sYWJlbCBzcGFue2JhY2tncm91bmQ6IzFmMjAyMDt9I2dlTWVybWFpZE91dHB1dC0xNzIxMTk0MTEwNTgyIC5jbGFzc1RpdGxle2ZvbnQtd2VpZ2h0OmJvbGRlcjt9I2dlTWVybWFpZE91dHB1dC0xNzIxMTk0MTEwNTgyIC5ub2RlIHJlY3QsI2dlTWVybWFpZE91dHB1dC0xNzIxMTk0MTEwNTgyIC5ub2RlIGNpcmNsZSwjZ2VNZXJtYWlkT3V0cHV0LTE3MjExOTQxMTA1ODIgLm5vZGUgZWxsaXBzZSwjZ2VNZXJtYWlkT3V0cHV0LTE3MjExOTQxMTA1ODIgLm5vZGUgcG9seWdvbiwjZ2VNZXJtYWlkT3V0cHV0LTE3MjExOTQxMTA1ODIgLm5vZGUgcGF0aHtmaWxsOiMxZjIwMjA7c3Ryb2tlOiM4MUIxREI7c3Ryb2tlLXdpZHRoOjFweDt9I2dlTWVybWFpZE91dHB1dC0xNzIxMTk0MTEwNTgyIC5kaXZpZGVye3N0cm9rZTojODFCMURCO3N0cm9rZToxO30jZ2VNZXJtYWlkT3V0cHV0LTE3MjExOTQxMTA1ODIgZy5jbGlja2FibGV7Y3Vyc29yOnBvaW50ZXI7fSNnZU1lcm1haWRPdXRwdXQtMTcyMTE5NDExMDU4MiBnLmNsYXNzR3JvdXAgcmVjdHtmaWxsOiMxZjIwMjA7c3Ryb2tlOiM4MUIxREI7fSNnZU1lcm1haWRPdXRwdXQtMTcyMTE5NDExMDU4MiBnLmNsYXNzR3JvdXAgbGluZXtzdHJva2U6IzgxQjFEQjtzdHJva2Utd2lkdGg6MTt9I2dlTWVybWFpZE91dHB1dC0xNzIxMTk0MTEwNTgyIC5jbGFzc0xhYmVsIC5ib3h7c3Ryb2tlOm5vbmU7c3Ryb2tlLXdpZHRoOjA7ZmlsbDojMWYyMDIwO29wYWNpdHk6MC41O30jZ2VNZXJtYWlkT3V0cHV0LTE3MjExOTQxMTA1ODIgLmNsYXNzTGFiZWwgLmxhYmVse2ZpbGw6IzgxQjFEQjtmb250LXNpemU6MTBweDt9I2dlTWVybWFpZE91dHB1dC0xNzIxMTk0MTEwNTgyIC5yZWxhdGlvbntzdHJva2U6bGlnaHRncmV5O3N0cm9rZS13aWR0aDoxO2ZpbGw6bm9uZTt9I2dlTWVybWFpZE91dHB1dC0xNzIxMTk0MTEwNTgyIC5kYXNoZWQtbGluZXtzdHJva2UtZGFzaGFycmF5OjM7fSNnZU1lcm1haWRPdXRwdXQtMTcyMTE5NDExMDU4MiAjY29tcG9zaXRpb25TdGFydCwjZ2VNZXJtYWlkT3V0cHV0LTE3MjExOTQxMTA1ODIgLmNvbXBvc2l0aW9ue2ZpbGw6bGlnaHRncmV5IWltcG9ydGFudDtzdHJva2U6bGlnaHRncmV5IWltcG9ydGFudDtzdHJva2Utd2lkdGg6MTt9I2dlTWVybWFpZE91dHB1dC0xNzIxMTk0MTEwNTgyICNjb21wb3NpdGlvbkVuZCwjZ2VNZXJtYWlkT3V0cHV0LTE3MjExOTQxMTA1ODIgLmNvbXBvc2l0aW9ue2ZpbGw6bGlnaHRncmV5IWltcG9ydGFudDtzdHJva2U6bGlnaHRncmV5IWltcG9ydGFudDtzdHJva2Utd2lkdGg6MTt9I2dlTWVybWFpZE91dHB1dC0xNzIxMTk0MTEwNTgyICNkZXBlbmRlbmN5U3RhcnQsI2dlTWVybWFpZE91dHB1dC0xNzIxMTk0MTEwNTgyIC5kZXBlbmRlbmN5e2ZpbGw6bGlnaHRncmV5IWltcG9ydGFudDtzdHJva2U6bGlnaHRncmV5IWltcG9ydGFudDtzdHJva2Utd2lkdGg6MTt9I2dlTWVybWFpZE91dHB1dC0xNzIxMTk0MTEwNTgyICNkZXBlbmRlbmN5U3RhcnQsI2dlTWVybWFpZE91dHB1dC0xNzIxMTk0MTEwNTgyIC5kZXBlbmRlbmN5e2ZpbGw6bGlnaHRncmV5IWltcG9ydGFudDtzdHJva2U6bGlnaHRncmV5IWltcG9ydGFudDtzdHJva2Utd2lkdGg6MTt9I2dlTWVybWFpZE91dHB1dC0xNzIxMTk0MTEwNTgyICNleHRlbnNpb25TdGFydCwjZ2VNZXJtYWlkT3V0cHV0LTE3MjExOTQxMTA1ODIgLmV4dGVuc2lvbntmaWxsOmxpZ2h0Z3JleSFpbXBvcnRhbnQ7c3Ryb2tlOmxpZ2h0Z3JleSFpbXBvcnRhbnQ7c3Ryb2tlLXdpZHRoOjE7fSNnZU1lcm1haWRPdXRwdXQtMTcyMTE5NDExMDU4MiAjZXh0ZW5zaW9uRW5kLCNnZU1lcm1haWRPdXRwdXQtMTcyMTE5NDExMDU4MiAuZXh0ZW5zaW9ue2ZpbGw6bGlnaHRncmV5IWltcG9ydGFudDtzdHJva2U6bGlnaHRncmV5IWltcG9ydGFudDtzdHJva2Utd2lkdGg6MTt9I2dlTWVybWFpZE91dHB1dC0xNzIxMTk0MTEwNTgyICNhZ2dyZWdhdGlvblN0YXJ0LCNnZU1lcm1haWRPdXRwdXQtMTcyMTE5NDExMDU4MiAuYWdncmVnYXRpb257ZmlsbDojMWYyMDIwIWltcG9ydGFudDtzdHJva2U6bGlnaHRncmV5IWltcG9ydGFudDtzdHJva2Utd2lkdGg6MTt9I2dlTWVybWFpZE91dHB1dC0xNzIxMTk0MTEwNTgyICNhZ2dyZWdhdGlvbkVuZCwjZ2VNZXJtYWlkT3V0cHV0LTE3MjExOTQxMTA1ODIgLmFnZ3JlZ2F0aW9ue2ZpbGw6IzFmMjAyMCFpbXBvcnRhbnQ7c3Ryb2tlOmxpZ2h0Z3JleSFpbXBvcnRhbnQ7c3Ryb2tlLXdpZHRoOjE7fSNnZU1lcm1haWRPdXRwdXQtMTcyMTE5NDExMDU4MiAuZWRnZVRlcm1pbmFsc3tmb250LXNpemU6MTFweDt9I2dlTWVybWFpZE91dHB1dC0xNzIxMTk0MTEwNTgyIDpyb290ey0tbWVybWFpZC1mb250LWZhbWlseToidHJlYnVjaGV0IG1zIix2ZXJkYW5hLGFyaWFsLHNhbnMtc2VyaWY7fTwvc3R5bGU+PGcgdHJhbnNmb3JtPSJ0cmFuc2xhdGUoMCwgMCkiPjxkZWZzPjxtYXJrZXIgb3JpZW50PSJhdXRvIiBtYXJrZXJIZWlnaHQ9IjI0MCIgbWFya2VyV2lkdGg9IjE5MCIgcmVmWT0iNyIgcmVmWD0iMCIgY2xhc3M9Im1hcmtlciBhZ2dyZWdhdGlvbiBjbGFzc0RpYWdyYW0iIGlkPSJjbGFzc0RpYWdyYW0tYWdncmVnYXRpb25TdGFydCI+PHBhdGggZD0iTSAxOCw3IEw5LDEzIEwxLDcgTDksMSBaIj48L3BhdGg+PC9tYXJrZXI+PC9kZWZzPjxkZWZzPjxtYXJrZXIgb3JpZW50PSJhdXRvIiBtYXJrZXJIZWlnaHQ9IjI4IiBtYXJrZXJXaWR0aD0iMjAiIHJlZlk9IjciIHJlZlg9IjE5IiBjbGFzcz0ibWFya2VyIGFnZ3JlZ2F0aW9uIGNsYXNzRGlhZ3JhbSIgaWQ9ImNsYXNzRGlhZ3JhbS1hZ2dyZWdhdGlvbkVuZCI+PHBhdGggZD0iTSAxOCw3IEw5LDEzIEwxLDcgTDksMSBaIj48L3BhdGg+PC9tYXJrZXI+PC9kZWZzPjxkZWZzPjxtYXJrZXIgb3JpZW50PSJhdXRvIiBtYXJrZXJIZWlnaHQ9IjI0MCIgbWFya2VyV2lkdGg9IjE5MCIgcmVmWT0iNyIgcmVmWD0iMCIgY2xhc3M9Im1hcmtlciBleHRlbnNpb24gY2xhc3NEaWFncmFtIiBpZD0iY2xhc3NEaWFncmFtLWV4dGVuc2lvblN0YXJ0Ij48cGF0aCBkPSJNIDEsNyBMMTgsMTMgViAxIFoiPjwvcGF0aD48L21hcmtlcj48L2RlZnM+PGRlZnM+PG1hcmtlciBvcmllbnQ9ImF1dG8iIG1hcmtlckhlaWdodD0iMjgiIG1hcmtlcldpZHRoPSIyMCIgcmVmWT0iNyIgcmVmWD0iMTkiIGNsYXNzPSJtYXJrZXIgZXh0ZW5zaW9uIGNsYXNzRGlhZ3JhbSIgaWQ9ImNsYXNzRGlhZ3JhbS1leHRlbnNpb25FbmQiPjxwYXRoIGQ9Ik0gMSwxIFYgMTMgTDE4LDcgWiI+PC9wYXRoPjwvbWFya2VyPjwvZGVmcz48ZGVmcz48bWFya2VyIG9yaWVudD0iYXV0byIgbWFya2VySGVpZ2h0PSIyNDAiIG1hcmtlcldpZHRoPSIxOTAiIHJlZlk9IjciIHJlZlg9IjAiIGNsYXNzPSJtYXJrZXIgY29tcG9zaXRpb24gY2xhc3NEaWFncmFtIiBpZD0iY2xhc3NEaWFncmFtLWNvbXBvc2l0aW9uU3RhcnQiPjxwYXRoIGQ9Ik0gMTgsNyBMOSwxMyBMMSw3IEw5LDEgWiI+PC9wYXRoPjwvbWFya2VyPjwvZGVmcz48ZGVmcz48bWFya2VyIG9yaWVudD0iYXV0byIgbWFya2VySGVpZ2h0PSIyOCIgbWFya2VyV2lkdGg9IjIwIiByZWZZPSI3IiByZWZYPSIxOSIgY2xhc3M9Im1hcmtlciBjb21wb3NpdGlvbiBjbGFzc0RpYWdyYW0iIGlkPSJjbGFzc0RpYWdyYW0tY29tcG9zaXRpb25FbmQiPjxwYXRoIGQ9Ik0gMTgsNyBMOSwxMyBMMSw3IEw5LDEgWiI+PC9wYXRoPjwvbWFya2VyPjwvZGVmcz48ZGVmcz48bWFya2VyIG9yaWVudD0iYXV0byIgbWFya2VySGVpZ2h0PSIyNDAiIG1hcmtlcldpZHRoPSIxOTAiIHJlZlk9IjciIHJlZlg9IjAiIGNsYXNzPSJtYXJrZXIgZGVwZW5kZW5jeSBjbGFzc0RpYWdyYW0iIGlkPSJjbGFzc0RpYWdyYW0tZGVwZW5kZW5jeVN0YXJ0Ij48cGF0aCBkPSJNIDUsNyBMOSwxMyBMMSw3IEw5LDEgWiI+PC9wYXRoPjwvbWFya2VyPjwvZGVmcz48ZGVmcz48bWFya2VyIG9yaWVudD0iYXV0byIgbWFya2VySGVpZ2h0PSIyOCIgbWFya2VyV2lkdGg9IjIwIiByZWZZPSI3IiByZWZYPSIxOSIgY2xhc3M9Im1hcmtlciBkZXBlbmRlbmN5IGNsYXNzRGlhZ3JhbSIgaWQ9ImNsYXNzRGlhZ3JhbS1kZXBlbmRlbmN5RW5kIj48cGF0aCBkPSJNIDE4LDcgTDksMTMgTDE0LDcgTDksMSBaIj48L3BhdGg+PC9tYXJrZXI+PC9kZWZzPjxnIGNsYXNzPSJyb290Ij48ZyBjbGFzcz0iY2x1c3RlcnMiPjwvZz48ZyBjbGFzcz0iZWRnZVBhdGhzIj48cGF0aCBtYXJrZXItZW5kPSJ1cmwoI2NsYXNzRGlhZ3JhbS1kZXBlbmRlbmN5RW5kKSIgc3R5bGU9ImZpbGw6bm9uZSIgY2xhc3M9ImVkZ2UtcGF0dGVybi1zb2xpZCByZWxhdGlvbiIgaWQ9ImlkMSIgZD0iTTIxMi4wMjUwMDkxNTUyNzM0NCwyNjdMMjEyLjAyNTAwOTE1NTI3MzQ0LDI3Mi42OTk5OTk5NjgyMTA5QzIxMi4wMjUwMDkxNTUyNzM0NCwyNzguMzk5OTk5OTM2NDIxNywyMTIuMDI1MDA5MTU1MjczNDQsMjg5Ljc5OTk5OTg3Mjg0MzQ0LDIxMi4wMjUwMDkxNTUyNzM0NCwzMDEuMTk5OTk5ODA5MjY1MTRDMjEyLjAyNTAwOTE1NTI3MzQ0LDMxMi41OTk5OTk3NDU2ODY4MywyMTIuMDI1MDA5MTU1MjczNDQsMzIzLjk5OTk5OTY4MjEwODYsMjEyLjAyNTAwOTE1NTI3MzQ0LDMyOS42OTk5OTk2NTAzMTk0TDIxMi4wMjUwMDkxNTUyNzM0NCwzMzUuMzk5OTk5NjE4NTMwMyI+PC9wYXRoPjwvZz48ZyBjbGFzcz0iZWRnZUxhYmVscyI+PGcgdHJhbnNmb3JtPSJ0cmFuc2xhdGUoMjEyLjAyNTAwOTE1NTI3MzQ0LCAzMDEuMTk5OTk5ODA5MjY1MTQpIiBjbGFzcz0iZWRnZUxhYmVsIj48ZyB0cmFuc2Zvcm09InRyYW5zbGF0ZSgtMzAuODY4NzQ5NjE4NTMwMjczLCAtOS4xOTk5OTk4MDkyNjUxMzcpIiBjbGFzcz0ibGFiZWwiPjxyZWN0IGhlaWdodD0iMTguNDAwMDAxNTI1ODc4OTA2IiB3aWR0aD0iNjEuNzEwOTc5NDYxNjY5OTIiIHJ5PSIwIiByeD0iMCI+PC9yZWN0Pjx0ZXh0IHN0eWxlPSIiPjx0c3BhbiBjbGFzcz0icm93IiB4PSIwIiBkeT0iMWVtIiB4bWw6c3BhY2U9InByZXNlcnZlIj5kZXBlbmRlPC90c3Bhbj48L3RleHQ+PC9nPjwvZz48ZyB0cmFuc2Zvcm09InRyYW5zbGF0ZSgxOTcuMDI1MDA5MTU1MjczNDQsIDI4NC41KSIgY2xhc3M9ImVkZ2VUZXJtaW5hbHMiPjxnIHRyYW5zZm9ybT0idHJhbnNsYXRlKC04Ljk0Mzc1MDM4MTQ2OTcyNywgLTYuNDAwMDAwMDk1MzY3NDMyKSIgY2xhc3M9ImlubmVyIj48dGV4dCBzdHlsZT0iIj48dHNwYW4gY2xhc3M9InJvdyIgeD0iMCIgZHk9IjFlbSIgeG1sOnNwYWNlPSJwcmVzZXJ2ZSI+MS4uKjwvdHNwYW4+PC90ZXh0PjwvZz48L2c+PGcgdHJhbnNmb3JtPSJ0cmFuc2xhdGUoMjIyLjAyNTAwOTE1NTI3MzQ0LCAzMTIuODk5OTk5NjE4NTMwMykiIGNsYXNzPSJlZGdlVGVybWluYWxzIj48ZyB0cmFuc2Zvcm09InRyYW5zbGF0ZSgtMi44ODc1MDAwNDc2ODM3MTYsIC02LjQwMDAwMDA5NTM2NzQzMikiIGNsYXNzPSJpbm5lciI+PC9nPjx0ZXh0IHN0eWxlPSIiPjx0c3BhbiBjbGFzcz0icm93IiB4PSIwIiBkeT0iMWVtIiB4bWw6c3BhY2U9InByZXNlcnZlIj4xPC90c3Bhbj48L3RleHQ+PC9nPjwvZz48ZyBjbGFzcz0ibm9kZXMiPjxnIHRyYW5zZm9ybT0idHJhbnNsYXRlKDIxMi4wMjUwMDkxNTUyNzM0NCwgMTM3LjUpIiBpZD0iY2xhc3NpZC1Fc3RhZG9CcmFzaWxlaXJvLTYiIGNsYXNzPSJub2RlIGRlZmF1bHQiPjxyZWN0IGhlaWdodD0iMjU4Ljk5OTk5NjE4NTMwMjczIiB3aWR0aD0iNDA4LjA1MDAxODMxMDU0NjkiIHk9Ii0xMjkuNDk5OTk4MDkyNjUxMzciIHg9Ii0yMDQuMDI1MDA5MTU1MjczNDQiIGNsYXNzPSJvdXRlciB0aXRsZS1zdGF0ZSI+PC9yZWN0PjxsaW5lIHkyPSItNzYuNjk5OTk4ODU1NTkwODIiIHkxPSItNzYuNjk5OTk4ODU1NTkwODIiIHgyPSIyMDQuMDI1MDA5MTU1MjczNDQiIHgxPSItMjA0LjAyNTAwOTE1NTI3MzQ0IiBjbGFzcz0iZGl2aWRlciI+PC9saW5lPjxsaW5lIHkyPSI2LjUiIHkxPSI2LjUiIHgyPSIyMDQuMDI1MDA5MTU1MjczNDQiIHgxPSItMjA0LjAyNTAwOTE1NTI3MzQ0IiBjbGFzcz0iZGl2aWRlciI+PC9saW5lPjxnIGNsYXNzPSJsYWJlbCI+PHRleHQgdHJhbnNmb3JtPSJ0cmFuc2xhdGUoIC01My45MzEyNTE1MjU4Nzg5MDYsIC0xMjEuOTk5OTk4MDkyNjUxMzcpIiBzdHlsZT0iIj48dHNwYW4gY2xhc3M9InRpdGxlLXJvdyIgeD0iMCIgZHk9IjFlbSIgeG1sOnNwYWNlPSJwcmVzZXJ2ZSI+wqtlbnVtZXJhdGlvbsK7PC90c3Bhbj48L3RleHQ+PHRleHQgdHJhbnNmb3JtPSJ0cmFuc2xhdGUoIC01OS45MTg3NTA3NjI5Mzk0NSwgLTk5LjU5OTk5ODQ3NDEyMTEpIiBjbGFzcz0iY2xhc3NUaXRsZSIgc3R5bGU9IiI+PHRzcGFuIGNsYXNzPSJ0aXRsZS1yb3ciIHg9IjAiIGR5PSIxZW0iIHhtbDpzcGFjZT0icHJlc2VydmUiPkVzdGFkb0JyYXNpbGVpcm88L3RzcGFuPjwvdGV4dD48dGV4dCB0cmFuc2Zvcm09InRyYW5zbGF0ZSggLTE5Ni41MjUwMDkxNTUyNzM0NCwgLTY1LjE5OTk5ODg1NTU5MDgyKSIgc3R5bGU9IiI+PHRzcGFuIGNsYXNzPSJ0aXRsZS1yb3ciIHg9IjAiIGR5PSIxZW0iIHhtbDpzcGFjZT0icHJlc2VydmUiPi0gU3RyaW5nIG5vbWU8L3RzcGFuPjwvdGV4dD48dGV4dCB0cmFuc2Zvcm09InRyYW5zbGF0ZSggLTE5Ni41MjUwMDkxNTUyNzM0NCwgLTQyLjc5OTk5OTIzNzA2MDU1KSIgc3R5bGU9IiI+PHRzcGFuIGNsYXNzPSJ0aXRsZS1yb3ciIHg9IjAiIGR5PSIxZW0iIHhtbDpzcGFjZT0icHJlc2VydmUiPi0gU3RyaW5nIHNpZ2xhPC90c3Bhbj48L3RleHQ+PHRleHQgdHJhbnNmb3JtPSJ0cmFuc2xhdGUoIC0xOTYuNTI1MDA5MTU1MjczNDQsIC0yMC4zOTk5OTk2MTg1MzAyNzMpIiBzdHlsZT0iIj48dHNwYW4gY2xhc3M9InRpdGxlLXJvdyIgeD0iMCIgZHk9IjFlbSIgeG1sOnNwYWNlPSJwcmVzZXJ2ZSI+LSBpbnQgaWJnZTwvdHNwYW4+PC90ZXh0Pjx0ZXh0IHRyYW5zZm9ybT0idHJhbnNsYXRlKCAtMTk2LjUyNTAwOTE1NTI3MzQ0LCAxNCkiIHN0eWxlPSIiPjx0c3BhbiBjbGFzcz0idGl0bGUtcm93IiB4PSIwIiBkeT0iMWVtIiB4bWw6c3BhY2U9InByZXNlcnZlIj4rRXN0YWRvQnJhc2lsZWlybyhzaWdsYTogU3RyaW5nLCBub21lOiBTdHJpbmcsIGliZ2U6IGludCk8L3RzcGFuPjwvdGV4dD48dGV4dCB0cmFuc2Zvcm09InRyYW5zbGF0ZSggLTE5Ni41MjUwMDkxNTUyNzM0NCwgMzYuMzk5OTk5NjE4NTMwMjcpIiBzdHlsZT0iIj48dHNwYW4gY2xhc3M9InRpdGxlLXJvdyIgeD0iMCIgZHk9IjFlbSIgeG1sOnNwYWNlPSJwcmVzZXJ2ZSI+K2dldFNpZ2xhKCk8L3RzcGFuPjwvdGV4dD48dGV4dCB0cmFuc2Zvcm09InRyYW5zbGF0ZSggLTE5Ni41MjUwMDkxNTUyNzM0NCwgNTguNzk5OTk5MjM3MDYwNTUpIiBzdHlsZT0iIj48dHNwYW4gY2xhc3M9InRpdGxlLXJvdyIgeD0iMCIgZHk9IjFlbSIgeG1sOnNwYWNlPSJwcmVzZXJ2ZSI+K2dldE5vbWUoKTwvdHNwYW4+PC90ZXh0Pjx0ZXh0IHRyYW5zZm9ybT0idHJhbnNsYXRlKCAtMTk2LjUyNTAwOTE1NTI3MzQ0LCA4MS4xOTk5OTg4NTU1OTA4MikiIHN0eWxlPSIiPjx0c3BhbiBjbGFzcz0idGl0bGUtcm93IiB4PSIwIiBkeT0iMWVtIiB4bWw6c3BhY2U9InByZXNlcnZlIj4rZ2V0Tm9tZU1haXVzY3VsbygpPC90c3Bhbj48L3RleHQ+PHRleHQgdHJhbnNmb3JtPSJ0cmFuc2xhdGUoIC0xOTYuNTI1MDA5MTU1MjczNDQsIDEwMy41OTk5OTg0NzQxMjExKSIgc3R5bGU9IiI+PHRzcGFuIGNsYXNzPSJ0aXRsZS1yb3ciIHg9IjAiIGR5PSIxZW0iIHhtbDpzcGFjZT0icHJlc2VydmUiPitnZXRJYmdlKCk8L3RzcGFuPjwvdGV4dD48L2c+PC9nPjxnIHRyYW5zZm9ybT0idHJhbnNsYXRlKDIxMi4wMjUwMDkxNTUyNzM0NCwgMzc1LjMwMDAwMTE0NDQwOTIpIiBpZD0iY2xhc3NpZC1TaXN0ZW1hSWJnZS03IiBjbGFzcz0ibm9kZSBkZWZhdWx0Ij48cmVjdCBoZWlnaHQ9Ijc5Ljc5OTk5OTIzNzA2MDU1IiB3aWR0aD0iMTYzLjMxMjUiIHk9Ii0zOS44OTk5OTk2MTg1MzAyNyIgeD0iLTgxLjY1NjI1IiBjbGFzcz0ib3V0ZXIgdGl0bGUtc3RhdGUiPjwvcmVjdD48bGluZSB5Mj0iLTkuNSIgeTE9Ii05LjUiIHgyPSI4MS42NTYyNSIgeDE9Ii04MS42NTYyNSIgY2xhc3M9ImRpdmlkZXIiPjwvbGluZT48bGluZSB5Mj0iNi41IiB5MT0iNi41IiB4Mj0iODEuNjU2MjUiIHgxPSItODEuNjU2MjUiIGNsYXNzPSJkaXZpZGVyIj48L2xpbmU+PGcgY2xhc3M9ImxhYmVsIj48dGV4dCBzdHlsZT0iIj48dHNwYW4gY2xhc3M9InRpdGxlLXJvdyIgeD0iMCIgZHk9IjFlbSIgeG1sOnNwYWNlPSJwcmVzZXJ2ZSI+PC90c3Bhbj48L3RleHQ+PHRleHQgdHJhbnNmb3JtPSJ0cmFuc2xhdGUoIC00NC41MjI2NTU0ODcwNjA1NSwgLTMyLjM5OTk5OTYxODUzMDI3KSIgY2xhc3M9ImNsYXNzVGl0bGUiIHN0eWxlPSIiPjx0c3BhbiBjbGFzcz0idGl0bGUtcm93IiB4PSIwIiBkeT0iMWVtIiB4bWw6c3BhY2U9InByZXNlcnZlIj5TaXN0ZW1hSWJnZTwvdHNwYW4+PC90ZXh0Pjx0ZXh0IHRyYW5zZm9ybT0idHJhbnNsYXRlKCAtNzQuMTU2MjUsIDE0KSIgc3R5bGU9IiI+PHRzcGFuIGNsYXNzPSJ0aXRsZS1yb3ciIHg9IjAiIGR5PSIxZW0iIHhtbDpzcGFjZT0icHJlc2VydmUiPittYWluKGFyZ3M6IFN0cmluZ1tdKTwvdHNwYW4+PC90ZXh0PjwvZz48L2c+PC9nPjwvZz48L2c+PC9zdmc+;rounded=1;align=center;labelBackgroundColor=default;labelBorderColor=default;whiteSpace=wrap;imageBackground=none;" vertex="1" parent="1">
                        <mxGeometry x="1790" y="152" width="510" height="518" as="geometry"/>
                    </mxCell>
                </UserObject>
            </root>
        </mxGraphModel>
    </diagram>
</mxfile>